<?xml version="1.0" encoding="UTF-8"?>
<!DOCTYPE svg PUBLIC "-//W3C//DTD SVG 1.1//EN" "http://www.w3.org/Graphics/SVG/1.1/DTD/svg11.dtd">
<!-- Creator: CorelDRAW 2018 (64-Bit) -->
<svg xmlns="http://www.w3.org/2000/svg" xml:space="preserve" width="81px" height="79px" version="1.1" style="shape-rendering:geometricPrecision; text-rendering:geometricPrecision; image-rendering:optimizeQuality; fill-rule:evenodd; clip-rule:evenodd"
viewBox="0 0 9.55 9.23"
 xmlns:xlink="http://www.w3.org/1999/xlink">
 <defs>
  <style type="text/css">
   <![CDATA[
    .fil0 {fill:#FEFEFE}
    .fil2 {fill:#008DD2;fill-rule:nonzero}
    .fil1 {fill:black;fill-rule:nonzero}
   ]]>
  </style>
 </defs>
 <g id="Layer_x0020_1">
  <metadata id="CorelCorpID_0Corel-Layer"/>
  <path class="fil0 str0" d="M1.79 0.06l5.97 0c0.95,0 1.73,0.78 1.73,1.73l0 5.65c0,0.96 -0.78,1.73 -1.73,1.73l-5.97 0c-0.95,0 -1.73,-0.77 -1.73,-1.73l0 -5.65c0,-0.95 0.78,-1.73 1.73,-1.73z"/>
  <path class="fil1" d="M3.28 3.75c0.03,-0.16 0.17,-0.1 0.16,-0.03 -0.01,0.37 0.24,0.43 0.35,0.25 0.08,-0.13 0.13,-0.17 0.19,-0.17 0.06,0 0.05,0.11 0.05,0.11 -0.01,0.21 -0.31,0.43 -0.56,0.27 -0.24,-0.17 -0.19,-0.43 -0.19,-0.43zm0.82 0.18c0.05,-0.45 -0.6,-0.57 -0.92,-0.3 0,0 -0.08,0.27 0.11,0.53 0.19,0.26 0.77,0.22 0.81,-0.23z"/>
  <path class="fil2" d="M4.39 4.2c0.06,-0.37 -0.24,-0.56 -0.24,-0.56 0.29,0.3 0.08,0.74 0.08,0.74 -0.04,-0.07 -0.05,-0.11 -0.05,-0.11 -0.01,0.32 -0.4,0.44 -0.4,0.44 0.37,-0.01 0.55,-0.14 0.61,-0.51z"/>
  <path class="fil2" d="M4.25 3.52c0,0 -0.04,-0.29 0,-0.34 0,0 0.03,0.1 0.09,0.17 0,0 0.07,-0.15 0.2,-0.3 0.14,-0.14 0.07,-0.53 0.07,-0.53 0,0 -0.01,0.29 -0.27,0.57 0,0 -0.12,-0.12 -0.16,-0.22 0,0 -0.09,0.21 0.07,0.65z"/>
  <path class="fil2" d="M2.65 0.99c0.33,0.16 0.7,0.56 0.7,0.56 0,0 -0.17,-0.06 -0.28,-0.08 0,0 0.45,0.24 0.7,0.61 0,0 -0.03,-0.3 -0.09,-0.38 0,0 0.15,0.09 0.22,0.16l-0.05 -0.19c0,0 -0.01,-0.18 -0.11,-0.29 0,0 0,0.05 -0.03,0.15 0,0 -0.73,-0.6 -0.99,-0.69 -0.27,-0.1 -0.51,-0.07 -0.48,0.38 0,0 0.08,-0.38 0.41,-0.23z"/>
  <path class="fil2" d="M3.64 2.31c0.01,0.01 0.02,0.02 0.02,0.02 -0.01,-0.01 -0.01,-0.01 -0.02,-0.02z"/>
  <path class="fil2" d="M3.26 2.42c0,0 0.14,-0.03 0.34,0.07 0,0 -0.06,-0.19 -0.13,-0.28 0,0 0.11,0.04 0.17,0.1 -0.04,-0.05 -0.23,-0.23 -0.45,-0.29 0,0 0.21,0.2 0.26,0.37 0,0 -0.2,-0.1 -0.46,0 0,0 0.2,0.05 0.33,0.15 0,0 -0.67,0.15 -1,-0.13 0,0 0.37,0.4 1.14,0.17 0,0 -0.05,-0.09 -0.2,-0.16z"/>
  <path class="fil2" d="M2.44 2.33c-0.03,-0.12 -0.01,-0.25 -0.01,-0.25 0.1,0.12 0.18,0.14 0.18,0.14 -0.11,-0.11 -0.22,-0.36 -0.29,-0.54 0.25,-0.25 0.56,-0.33 0.56,-0.33 -0.27,0.03 -0.45,0.14 -0.58,0.28 -0.03,-0.08 -0.04,-0.13 -0.04,-0.13 0,0.05 0,0.1 0.01,0.16 -0.15,0.18 -0.2,0.4 -0.22,0.5 0.04,-0.18 0.13,-0.33 0.23,-0.44 0.05,0.29 0.16,0.61 0.16,0.61z"/>
  <path class="fil2" d="M2.04 2.19l0 0.02c0,0 0,-0.02 0.01,-0.05 0,0.01 -0.01,0.02 -0.01,0.03z"/>
  <path class="fil2" d="M2.61 1.76c0.31,-0.19 0.7,0.03 0.7,0.03 -0.48,-0.3 -0.7,-0.03 -0.7,-0.03z"/>
  <path class="fil2" d="M2.54 2.84c0,0 -0.27,0 -0.5,0.14 0,0 0.41,-0.16 0.72,-0.08 0,0 -0.23,-0.22 -0.56,-0.21 0,0 0.25,-0.04 0.38,-0.04 0,0 -0.51,-0.17 -0.93,0.19 0,0 0.48,-0.17 0.89,0z"/>
  <path class="fil2" d="M3.75 1.28c-0.05,-0.08 -0.06,-0.13 -0.06,-0.13 0.1,0.06 0.42,0.13 0.42,0.13 -0.03,-0.05 -0.04,-0.11 -0.04,-0.11 0.08,0.12 0.23,0.14 0.23,0.14 -0.17,-0.15 -0.25,-0.47 -0.25,-0.47 -0.04,0.12 -0.04,0.31 -0.04,0.31 -0.17,-0.03 -0.42,-0.11 -0.42,-0.11l0 0.09c-0.12,-0.03 -0.25,-0.09 -0.25,-0.09l0.03 0.06c0.06,0.11 0.38,0.18 0.38,0.18z"/>
  <polygon class="fil2" points="3.73,5.5 3.73,5.5 "/>
  <path class="fil2" d="M3.73 5.5c-2.31,1.96 -1.74,3.27 -1.74,3.27 -0.15,-1.5 1.67,-3.2 1.74,-3.27z"/>
  <path class="fil2" d="M5.78 5.51c2.31,1.96 1.73,3.27 1.73,3.27 0.15,-1.5 -1.66,-3.2 -1.73,-3.27z"/>
  <path class="fil2" d="M1.05 8.12c0.22,-1.45 2.54,-2.62 2.54,-2.62 -2.69,1.3 -2.54,2.62 -2.54,2.62z"/>
  <path class="fil2" d="M2.67 5.17c-0.05,0.05 -0.06,0.08 -0.06,0.08 0.1,-0.06 0.22,-0.04 0.22,-0.04l-0.06 0.17c0.06,-0.09 0.12,-0.15 0.18,-0.19 0.42,0.03 0.74,0.08 0.74,0.08 -0.26,-0.04 -0.5,-0.08 -0.71,-0.1 0.05,-0.04 0.09,-0.05 0.09,-0.05 -0.06,-0.03 -0.18,0 -0.18,0 0.22,-0.18 0.55,-0.22 0.55,-0.22 -0.08,-0.04 -0.32,0.02 -0.32,0.02 -0.22,0.06 -0.35,0.15 -0.42,0.22 -2.04,-0.18 -1.87,0.57 -1.87,0.57 0.15,-0.5 1.08,-0.57 1.84,-0.54z"/>
  <path class="fil2" d="M3.74 5.8c0.02,-0.03 0.03,-0.06 0.05,-0.09 0,0 -0.02,0.03 -0.05,0.09z"/>
  <path class="fil2" d="M3.74 5.8c-0.64,1.44 0.35,2.2 0.35,2.2 -0.78,-0.93 -0.47,-1.91 -0.35,-2.2z"/>
  <path class="fil2" d="M3.34 5.46c0,0 -1.31,0.14 -1.92,0.75 0,0 1.19,-0.62 1.92,-0.75z"/>
  <path class="fil1" d="M5.34 3.9c0,0 0,-0.11 0.06,-0.11 0.06,0 0.11,0.05 0.19,0.18 0.1,0.17 0.36,0.12 0.34,-0.25 0,-0.08 0.14,-0.13 0.16,0.03 0,0 0.06,0.26 -0.19,0.42 -0.24,0.17 -0.54,-0.06 -0.56,-0.27zm0.75 0.26c0.19,-0.26 0.1,-0.53 0.1,-0.53 -0.31,-0.27 -0.96,-0.15 -0.92,0.3 0.04,0.44 0.63,0.48 0.82,0.23z"/>
  <path class="fil2" d="M4.99 4.2c0.06,0.36 0.24,0.5 0.61,0.5 0,0 -0.4,-0.12 -0.4,-0.43 0,0 -0.01,0.04 -0.05,0.11 0,0 -0.22,-0.45 0.08,-0.75 0,0 -0.3,0.2 -0.24,0.57z"/>
  <path class="fil2" d="M5.15 3.35c0.07,-0.07 0.1,-0.17 0.1,-0.17 0.04,0.05 0,0.34 0,0.34 0.16,-0.44 0.06,-0.65 0.06,-0.65 -0.04,0.1 -0.16,0.22 -0.16,0.22 -0.26,-0.28 -0.26,-0.57 -0.26,-0.57 0,0 -0.07,0.39 0.06,0.53 0.13,0.15 0.2,0.3 0.2,0.3z"/>
  <path class="fil2" d="M5.51 1.38c-0.1,0.11 -0.11,0.29 -0.11,0.29l-0.04 0.19c0.06,-0.07 0.21,-0.16 0.21,-0.16 -0.05,0.08 -0.09,0.38 -0.09,0.38 0.25,-0.37 0.7,-0.61 0.7,-0.61 -0.11,0.02 -0.27,0.08 -0.27,0.08 0,0 0.37,-0.4 0.7,-0.56 0.32,-0.15 0.41,0.23 0.41,0.23 0.02,-0.45 -0.22,-0.48 -0.48,-0.38 -0.27,0.09 -1,0.69 -1,0.69 -0.03,-0.1 -0.03,-0.15 -0.03,-0.15z"/>
  <path class="fil2" d="M5.6 2.33c0,0 0,-0.01 0.01,-0.02 -0.01,0.01 -0.01,0.01 -0.01,0.02z"/>
  <path class="fil2" d="M6.93 2.41c-0.33,0.28 -1,0.13 -1,0.13 0.13,-0.1 0.33,-0.15 0.33,-0.15 -0.26,-0.1 -0.46,0 -0.46,0 0.05,-0.17 0.26,-0.37 0.26,-0.37 -0.22,0.06 -0.41,0.24 -0.45,0.29 0.06,-0.06 0.18,-0.1 0.18,-0.1 -0.07,0.09 -0.14,0.28 -0.14,0.28 0.2,-0.1 0.34,-0.07 0.34,-0.07 -0.14,0.07 -0.2,0.16 -0.2,0.16 0.77,0.23 1.14,-0.17 1.14,-0.17z"/>
  <path class="fil2" d="M6.99 1.5c0,0 -0.01,0.05 -0.04,0.13 -0.12,-0.14 -0.31,-0.25 -0.58,-0.28 0,0 0.31,0.08 0.56,0.33 -0.06,0.18 -0.17,0.43 -0.28,0.54 0,0 0.07,-0.02 0.17,-0.14 0,0 0.03,0.13 0,0.25 0,0 0.1,-0.32 0.15,-0.61 0.1,0.11 0.19,0.26 0.23,0.44 -0.01,-0.1 -0.07,-0.32 -0.22,-0.5 0.01,-0.06 0.01,-0.11 0.01,-0.16z"/>
  <path class="fil2" d="M7.21 2.21l0 -0.02c0,-0.01 0,-0.02 -0.01,-0.03 0.01,0.03 0.01,0.05 0.01,0.05z"/>
  <path class="fil2" d="M6.65 1.76c0,0 -0.23,-0.27 -0.71,0.03 0,0 0.4,-0.22 0.71,-0.03z"/>
  <path class="fil2" d="M7.6 2.84c-0.42,-0.36 -0.93,-0.19 -0.93,-0.19 0.13,0 0.38,0.04 0.38,0.04 -0.33,-0.01 -0.55,0.21 -0.55,0.21 0.3,-0.08 0.71,0.08 0.71,0.08 -0.22,-0.14 -0.49,-0.14 -0.49,-0.14 0.4,-0.17 0.88,0 0.88,0z"/>
  <path class="fil2" d="M5.18 1.17c0,0 -0.01,0.06 -0.04,0.11 0,0 0.33,-0.07 0.43,-0.13 0,0 -0.02,0.05 -0.07,0.13 0,0 0.32,-0.07 0.38,-0.18l0.03 -0.06c0,0 -0.12,0.06 -0.25,0.09l0 -0.09c0,0 -0.24,0.08 -0.42,0.11 0,0 0,-0.19 -0.04,-0.31 0,0 -0.08,0.32 -0.25,0.47 0,0 0.15,-0.02 0.23,-0.14z"/>
  <polygon class="fil2" points="5.77,5.5 5.76,5.5 "/>
  <path class="fil2" d="M5.91 5.5c0,0 2.31,1.17 2.53,2.62 0,0 0.15,-1.32 -2.53,-2.62z"/>
  <path class="fil2" d="M6.8 5.14c-0.08,-0.07 -0.2,-0.16 -0.42,-0.22 0,0 -0.24,-0.06 -0.32,-0.02 0,0 0.32,0.04 0.55,0.22 0,0 -0.13,-0.03 -0.19,0 0,0 0.04,0.01 0.1,0.05 -0.22,0.02 -0.45,0.06 -0.71,0.1 0,0 0.31,-0.05 0.74,-0.08 0.05,0.04 0.12,0.1 0.18,0.19l-0.06 -0.17c0,0 0.12,-0.02 0.21,0.04 0,0 -0.01,-0.03 -0.05,-0.08 0.76,-0.03 1.69,0.04 1.83,0.54 0,0 0.18,-0.75 -1.86,-0.57z"/>
  <path class="fil2" d="M5.41 8c0,0 0.98,-0.76 0.34,-2.2 0.12,0.29 0.44,1.27 -0.34,2.2z"/>
  <path class="fil2" d="M5.75 5.8c-0.02,-0.06 -0.04,-0.09 -0.04,-0.09 0.01,0.03 0.03,0.06 0.04,0.09z"/>
  <path class="fil2" d="M6.15 5.46c0.73,0.13 1.93,0.75 1.93,0.75 -0.61,-0.61 -1.93,-0.75 -1.93,-0.75z"/>
  <path class="fil2" d="M5.2 5.42c0.14,-0.09 0.16,-0.38 0.16,-0.38 -0.01,0.15 -0.14,0.24 -0.14,0.24 0,0 0.02,-0.08 -0.04,-0.2 -0.06,-0.12 -0.46,-0.09 -0.46,-0.09 0,0 -0.4,-0.03 -0.46,0.09 -0.06,0.12 -0.04,0.2 -0.04,0.2 0,0 -0.13,-0.09 -0.14,-0.24 0,0 0.01,0.29 0.16,0.38 0.14,0.09 0.28,0.03 0.25,0.18 -0.03,0.15 -0.01,0.13 0.08,0.18 0.1,0.04 0.11,0.1 0.11,0.16 0,0.07 0,0.14 -0.09,0.19 -0.09,0.05 -0.36,0.12 -0.45,0.13 0,0 0.38,0.04 0.58,-0.13 0.19,0.17 0.58,0.13 0.58,0.13 -0.09,-0.01 -0.37,-0.08 -0.45,-0.13 -0.09,-0.05 -0.1,-0.12 -0.1,-0.19 0,-0.06 0.02,-0.12 0.11,-0.16 0.1,-0.05 0.12,-0.03 0.09,-0.18 -0.03,-0.15 0.11,-0.09 0.25,-0.18z"/>
 </g>
</svg>
