<?xml version="1.0" encoding="UTF-8"?>
<!DOCTYPE svg PUBLIC "-//W3C//DTD SVG 1.1//EN" "http://www.w3.org/Graphics/SVG/1.1/DTD/svg11.dtd">
<!-- Creator: CorelDRAW 2018 (64-Bit) -->
<svg xmlns="http://www.w3.org/2000/svg" xml:space="preserve" width="21px" height="32px" version="1.1" style="shape-rendering:geometricPrecision; text-rendering:geometricPrecision; image-rendering:optimizeQuality; fill-rule:evenodd; clip-rule:evenodd"
viewBox="0 0 0.63 0.93"
 xmlns:xlink="http://www.w3.org/1999/xlink">
 <defs>
  <style type="text/css">
   <![CDATA[
    .fil0 {fill:#365864;fill-rule:nonzero}
   ]]>
  </style>
 </defs>
 <g id="Layer_x0020_1">
  <metadata id="CorelCorpID_0Corel-Layer"/>
  <path class="fil0" d="M0 0.61l0.13 -0.02c0,0.05 0.02,0.09 0.06,0.12 0.01,0.01 0.04,0.03 0.06,0.03l0 -0.24c-0.05,-0.02 -0.09,-0.03 -0.12,-0.04 -0.03,-0.02 -0.06,-0.04 -0.08,-0.07 -0.02,-0.03 -0.03,-0.07 -0.03,-0.1 0,-0.04 0.01,-0.07 0.02,-0.1 0.02,-0.03 0.04,-0.05 0.07,-0.07 0.02,-0.01 0.04,-0.03 0.08,-0.04 0.02,0 0.04,-0.01 0.06,-0.01l0 -0.07 0.1 0 0 0.07c0.04,0 0.07,0.01 0.1,0.02 0.05,0.02 0.08,0.04 0.1,0.07 0.02,0.03 0.04,0.07 0.05,0.12l-0.13 0.02c0,-0.04 -0.02,-0.07 -0.05,-0.09 -0.02,-0.02 -0.04,-0.03 -0.07,-0.03l0 0.21c0.07,0.02 0.13,0.04 0.16,0.05 0.04,0.02 0.06,0.04 0.08,0.07 0.03,0.03 0.04,0.06 0.04,0.11 0,0.04 -0.02,0.08 -0.04,0.12 -0.03,0.03 -0.06,0.06 -0.11,0.08 -0.04,0.02 -0.08,0.03 -0.13,0.03l0 0.08 -0.1 0 0 -0.08c-0.06,-0.01 -0.11,-0.03 -0.15,-0.06 -0.05,-0.04 -0.09,-0.1 -0.1,-0.18zm0.35 0.14c0.04,0 0.08,-0.02 0.1,-0.04 0.03,-0.02 0.04,-0.05 0.04,-0.08 0,-0.03 -0.01,-0.05 -0.03,-0.07 -0.02,-0.01 -0.06,-0.02 -0.11,-0.04l0 0.23zm-0.1 -0.57c-0.03,0 -0.05,0.01 -0.07,0.02 -0.02,0.02 -0.03,0.04 -0.03,0.07 0,0.02 0,0.03 0.01,0.05 0.01,0.01 0.03,0.02 0.05,0.03 0.01,0 0.02,0.01 0.04,0.01l0 -0.18z"/>
 </g>
</svg>
