<?xml version="1.0" encoding="UTF-8"?>
<!DOCTYPE svg PUBLIC "-//W3C//DTD SVG 1.1//EN" "http://www.w3.org/Graphics/SVG/1.1/DTD/svg11.dtd">
<!-- Creator: CorelDRAW 2018 (64-Bit) -->
<svg xmlns="http://www.w3.org/2000/svg" xml:space="preserve" width="34px" height="34px" version="1.1" style="shape-rendering:geometricPrecision; text-rendering:geometricPrecision; image-rendering:optimizeQuality; fill-rule:evenodd; clip-rule:evenodd"
viewBox="0 0 1.83 1.83"
 xmlns:xlink="http://www.w3.org/1999/xlink">
 <defs>
  <style type="text/css">
   <![CDATA[
    .fil0 {fill:#365864;fill-rule:nonzero}
   ]]>
  </style>
 </defs>
 <g id="Layer_x0020_1">
  <metadata id="CorelCorpID_0Corel-Layer"/>
  <path class="fil0" d="M1.01 1.27c-0.06,0 -0.12,-0.02 -0.17,-0.04 -0.06,-0.02 -0.11,-0.05 -0.15,-0.1 -0.02,-0.02 -0.03,-0.05 -0.03,-0.08 0,-0.02 0.01,-0.05 0.03,-0.07 0.02,-0.03 0.05,-0.04 0.08,-0.04 0.03,0 0.06,0.01 0.08,0.04 0.04,0.04 0.1,0.06 0.16,0.06 0.05,0 0.11,-0.02 0.15,-0.06l0.38 -0.38c0.04,-0.04 0.06,-0.1 0.06,-0.16 0,-0.05 -0.02,-0.11 -0.06,-0.15 -0.04,-0.04 -0.1,-0.07 -0.16,-0.07 -0.05,0 -0.11,0.02 -0.15,0.06l-0.21 0.22c-0.02,0.01 -0.03,0.02 -0.04,0.02 -0.01,0.01 -0.03,0.01 -0.04,0.01 -0.02,0 -0.03,0 -0.05,-0.01 -0.01,0 -0.02,-0.01 -0.03,-0.02 -0.03,-0.03 -0.04,-0.05 -0.04,-0.08 0,-0.03 0.01,-0.06 0.04,-0.08l0.21 -0.22c0.08,-0.08 0.2,-0.12 0.31,-0.12 0.12,0 0.23,0.04 0.32,0.13 0.08,0.08 0.13,0.2 0.13,0.31 0,0.12 -0.05,0.23 -0.13,0.32l-0.38 0.38c-0.04,0.04 -0.09,0.07 -0.14,0.09 -0.06,0.02 -0.11,0.04 -0.17,0.04zm0.04 -0.39c-0.01,0 -0.02,0 -0.04,0 -0.01,-0.01 -0.02,-0.02 -0.03,-0.03 -0.05,-0.04 -0.1,-0.06 -0.16,-0.06 -0.06,0 -0.11,0.02 -0.16,0.06l-0.37 0.38c-0.04,0.04 -0.07,0.09 -0.07,0.15 0,0.06 0.03,0.12 0.07,0.16 0.04,0.04 0.1,0.06 0.15,0.06 0.06,0 0.12,-0.02 0.16,-0.06l0 0 0 0 0 0 0 0 0 0 0 -0.01 0.21 -0.2c0.02,-0.02 0.05,-0.03 0.08,-0.03 0.03,0 0.06,0.01 0.08,0.03 0.02,0.02 0.03,0.05 0.03,0.08 0,0.03 -0.01,0.06 -0.03,0.08l-0.21 0.21 0 0 0 0 0 0 0 0 0 0 -0.01 0 0 0c-0.04,0.04 -0.08,0.07 -0.13,0.09 -0.06,0.02 -0.12,0.04 -0.18,0.04 -0.05,0 -0.11,-0.02 -0.17,-0.04 -0.05,-0.02 -0.1,-0.05 -0.14,-0.09 -0.09,-0.09 -0.13,-0.2 -0.13,-0.32 0,-0.11 0.04,-0.23 0.13,-0.31l0.37 -0.38c0.09,-0.09 0.2,-0.13 0.32,-0.13 0.11,0 0.23,0.04 0.31,0.13 0.03,0.02 0.04,0.05 0.04,0.08 0,0.03 -0.01,0.06 -0.04,0.08 -0.01,0.01 -0.02,0.02 -0.03,0.02 -0.02,0.01 -0.03,0.01 -0.05,0.01z"/>
 </g>
</svg>
