<?xml version="1.0" encoding="utf-8"?>
<!-- Generator: Adobe Illustrator 24.0.2, SVG Export Plug-In . SVG Version: 6.00 Build 0)  -->
<svg version="1.1" id="Слой_1" xmlns="http://www.w3.org/2000/svg" xmlns:xlink="http://www.w3.org/1999/xlink" x="0px" y="0px"
	 viewBox="0 0 512 512" style="enable-background:new 0 0 512 512;" xml:space="preserve">
<style type="text/css">
	.st0{fill:none;}
</style>
<g>
	<g>
		<path class="st0" d="M6,244.8C6,165.2,6,85.6,6,6c166.7,0,333.3,0,500,0c0,166.7,0,333.3,0,500c-166.7,0-333.3,0-500,0
			c0-85.4,0-170.9,0-256.3c2.6,5.2,6.3,9.1,12.5,7.7c3-0.7,5.9-2.7,8.3-4.7C101.9,188.7,176.9,124.8,252,60.9c1.2-1,2.5-1.9,3.7-2.8
			c1.4,1.1,2.4,1.9,3.4,2.8c75.2,64,150.3,128,225.5,192c1.5,1.3,3,2.5,4.7,3.4c5.5,3.1,12.1,0.8,14.7-5c2.2-5,0.7-9.5-5-14.4
			c-28.6-24.5-57.3-49-86-73.3c-2.6-2.2-3.6-4.4-3.5-7.8c0.1-32.5,0.1-65,0.1-97.4c0-9.2-4.3-13.9-13.1-14
			c-15.9-0.2-31.8-0.2-47.7,0c-8,0.1-12.2,4.6-12.3,12.6c-0.1,11.9,0,23.7,0,35.6c0,1.5-0.1,3.1-0.2,5.2c-1.6-1.2-2.6-1.8-3.6-2.6
			c-22.4-19.1-44.7-38.1-67.1-57.2c-7.8-6.6-11.9-6.7-19.6-0.1C168.1,104.1,90.3,170.3,12.6,236.6C10,238.8,8.2,242,6,244.8z
			 M84.6,265.4c0,3.3,0,5.2,0,7.1c0,63,0,126,0,189c0,1.9,0,3.9,0.2,5.8c0.6,6.2,4.5,10,10.7,10.6c1.6,0.1,3.2,0.1,4.9,0.1
			c103.4,0,206.9,0,310.3,0c2.3,0,4.6,0.1,6.8-0.4c4.8-0.9,7.8-3.9,8.6-8.7c0.4-2.2,0.4-4.5,0.4-6.8c0-63.3,0-126.7,0-190
			c0-1.9,0-3.7,0-6.7c5.3,4.4,9.4,8.3,14,11.6c6.6,4.8,15.3,1.6,16.8-6c1-5.3-1.6-8.9-5.4-12.2c-62.1-53-124.2-106.1-186.3-159.1
			c-8-6.8-11.9-6.8-19.9,0.1c-36.3,31-72.6,62-108.9,93c-25.9,22.2-51.9,44.3-77.7,66.5c-6,5.2-6.9,11.7-2.6,16.6
			c4.3,4.8,10.4,4.7,16.4-0.4C76.4,272.5,79.9,269.4,84.6,265.4z"/>
		<path d="M6,244.8c2.2-2.8,4-5.9,6.6-8.2c77.7-66.3,155.4-132.5,233.2-198.8c7.7-6.6,11.9-6.5,19.6,0.1
			c22.4,19.1,44.7,38.2,67.1,57.2c0.9,0.8,2,1.5,3.6,2.6c0.1-2.2,0.2-3.7,0.2-5.2c0-11.9-0.1-23.7,0-35.6c0.1-8,4.3-12.5,12.3-12.6
			c15.9-0.2,31.8-0.2,47.7,0c8.8,0.1,13.1,4.8,13.1,14c0,32.5,0.1,65-0.1,97.4c0,3.4,0.9,5.6,3.5,7.8c28.7,24.4,57.4,48.9,86,73.3
			c5.7,4.9,7.2,9.4,5,14.4c-2.6,5.7-9.2,8.1-14.7,5c-1.7-0.9-3.2-2.2-4.7-3.4c-75.2-64-150.3-128-225.5-192c-1-0.8-2-1.6-3.4-2.8
			c-1.2,0.9-2.5,1.8-3.7,2.8c-75.1,63.9-150.1,127.8-225.2,191.7c-2.4,2-5.3,4-8.3,4.7c-6.3,1.5-9.9-2.5-12.5-7.7
			C6,248,6,246.4,6,244.8z M357.8,66.3c0,16.5-0.1,32.5,0.1,48.5c0,1.4,1.4,3.1,2.7,4.2c7.2,6.3,14.6,12.4,22,18.5
			c1.5,1.3,3.1,2.5,5,4.1c0-25.7,0-50.4,0-75.4C377.7,66.3,368.1,66.3,357.8,66.3z"/>
		<path d="M84.6,265.4c-4.7,4-8.2,7.1-11.8,10.1c-6.1,5.1-12.2,5.2-16.4,0.4c-4.3-4.9-3.4-11.4,2.6-16.6
			c25.9-22.2,51.8-44.3,77.7-66.5c36.3-31,72.6-62,108.9-93c8-6.9,12-6.9,19.9-0.1c62.1,53,124.2,106.1,186.3,159.1
			c3.8,3.3,6.4,6.9,5.4,12.2c-1.5,7.6-10.2,10.9-16.8,6c-4.5-3.3-8.7-7.2-14-11.6c0,2.9,0,4.8,0,6.7c0,63.3,0,126.7,0,190
			c0,2.3,0,4.6-0.4,6.8c-0.9,4.8-3.9,7.8-8.6,8.7c-2.2,0.4-4.5,0.4-6.8,0.4c-103.4,0-206.9,0-310.3,0c-1.6,0-3.3,0-4.9-0.1
			c-6.1-0.6-10-4.4-10.7-10.6c-0.2-1.9-0.2-3.9-0.2-5.8c0-63,0-126,0-189C84.6,270.5,84.6,268.6,84.6,265.4z M255.7,119.7
			c-1,0.8-1.5,1.1-2,1.5c-48.2,41.1-96.5,82.1-144.6,123.3c-1.7,1.5-2.8,4.6-2.8,7c-0.2,66.4-0.1,132.9-0.1,199.3c0,1.7,0,3.4,0,5.1
			c28.7,0,56.7,0,85,0c0-2.3,0-4.3,0-6.2c0-39,0-78,0-117c0-10.5,3.6-14,14.1-14c33.3,0,66.6,0,99.9,0c11.8,0,15,3.2,15,15.1
			c0,38.8,0,77.6,0,116.5c0,1.9,0,3.8,0,5.6c28.7,0,56.7,0,84.8,0c0.1-1.4,0.2-2.3,0.2-3.3c0-67.4,0-134.8-0.1-202.2
			c0-2.1-1.6-4.9-3.3-6.3c-31.5-27.1-63.2-54-94.9-81C289.8,148.7,272.8,134.3,255.7,119.7z M212.7,456.1c28.8,0,57.1,0,85.4,0
			c0-38.7,0-77.1,0-115.4c-28.7,0-57,0-85.4,0C212.7,379.2,212.7,417.5,212.7,456.1z"/>
		<path class="st0" d="M357.8,66.3c10.3,0,19.9,0,29.8,0c0,24.9,0,49.7,0,75.4c-1.9-1.6-3.5-2.8-5-4.1c-7.3-6.2-14.7-12.3-22-18.5
			c-1.2-1.1-2.6-2.8-2.7-4.2C357.7,98.8,357.8,82.8,357.8,66.3z"/>
		<path class="st0" d="M255.7,119.7c17.2,14.6,34.1,29,51,43.4c31.6,27,63.3,53.9,94.9,81c1.7,1.5,3.3,4.2,3.3,6.3
			c0.2,67.4,0.1,134.8,0.1,202.2c0,1-0.1,1.9-0.2,3.3c-28.1,0-56.1,0-84.8,0c0-1.9,0-3.7,0-5.6c0-38.8,0-77.6,0-116.5
			c0-11.9-3.2-15.1-15-15.1c-33.3,0-66.6,0-99.9,0c-10.5,0-14.1,3.6-14.1,14c0,39,0,78,0,117c0,1.9,0,3.9,0,6.2c-28.3,0-56.3,0-85,0
			c0-1.7,0-3.4,0-5.1c0-66.4,0-132.9,0.1-199.3c0-2.4,1.1-5.5,2.8-7c48.1-41.2,96.3-82.3,144.6-123.3
			C254.2,120.8,254.7,120.5,255.7,119.7z"/>
		<path class="st0" d="M212.7,456.1c0-38.6,0-76.9,0-115.4c28.5,0,56.8,0,85.4,0c0,38.4,0,76.7,0,115.4
			C269.9,456.1,241.6,456.1,212.7,456.1z"/>
	</g>
</g>
</svg>
