<?xml version="1.0" encoding="UTF-8"?>
<!DOCTYPE svg PUBLIC "-//W3C//DTD SVG 1.1//EN" "http://www.w3.org/Graphics/SVG/1.1/DTD/svg11.dtd">
<!-- Creator: CorelDRAW 2018 (64-Bit) -->
<svg xmlns="http://www.w3.org/2000/svg" xml:space="preserve" width="55px" height="55px" version="1.1" style="shape-rendering:geometricPrecision; text-rendering:geometricPrecision; image-rendering:optimizeQuality; fill-rule:evenodd; clip-rule:evenodd"
viewBox="0 0 2.68 2.68"
 xmlns:xlink="http://www.w3.org/1999/xlink">
 <defs>
  <style type="text/css">
   <![CDATA[
    .fil1 {fill:#142B33}
    .fil0 {fill:#938556}
    .fil2 {fill:white}
   ]]>
  </style>
 </defs>
 <g id="Layer_x0020_1">
  <metadata id="CorelCorpID_0Corel-Layer"/>
  <circle class="fil0" cx="1.34" cy="1.34" r="1.34"/>
  <circle class="fil1" cx="1.34" cy="1.34" r="1.1"/>
  <path class="fil2" d="M1.21 1.85c0,0 0,0 0,0 -0.04,0 -0.07,-0.01 -0.09,-0.04l-0.43 -0.44c-0.02,-0.02 -0.04,-0.06 -0.04,-0.09 0,-0.07 0.06,-0.13 0.13,-0.13 0.04,0 0.07,0.01 0.1,0.04l0.33 0.34 0.59 -0.66c0.02,-0.02 0.06,-0.04 0.09,-0.04 0.08,0 0.14,0.06 0.14,0.13 0,0.03 -0.02,0.07 -0.04,0.09l-0.68 0.76c-0.03,0.02 -0.06,0.04 -0.1,0.04l0 0z"/>
 </g>
</svg>
