<?xml version="1.0" encoding="utf-8"?>
<!-- Generator: Adobe Illustrator 24.0.2, SVG Export Plug-In . SVG Version: 6.00 Build 0)  -->
<svg version="1.1" id="Слой_1" xmlns="http://www.w3.org/2000/svg" xmlns:xlink="http://www.w3.org/1999/xlink" x="0px" y="0px"
	 viewBox="0 0 512 512" style="enable-background:new 0 0 512 512;" xml:space="preserve">
<style type="text/css">
	.st0{fill: none;}
	.st1{fill: #142B33;}
</style>
<g>
	<g>
		<path class="st0" d="M4,457.9C4,306.6,4,155.3,4,4c168,0,336,0,504,0c0,168,0,336,0,504c-168,0-336,0-504,0c0-14.4,0-28.8,0-43.2
			c5.4,7.6,8,8.5,17.4,6.3c31.2-7.4,62.4-14.5,93.5-22.2c4.2-1,8.6-3.5,11.6-6.5c73.1-72.8,146-145.8,218.9-218.7
			c1.2-1.2,2.4-2.5,3.1-3.3c-31.1-31.1-61.7-61.7-92.6-92.6c-0.5,0.5-1.4,1.2-2.2,2c-73.9,73.9-147.8,147.7-221.5,221.7
			c-2.1,2.1-3.8,5.1-4.5,7.9c-5.2,21.1-10,42.3-15,63.5C10,434.5,6.9,446.2,4,457.9z M343,428.5c-46,0-92,0-138,0
			c-1.8,0-3.6-0.1-5.4,0.1c-10.7,0.8-19.1,8.7-20.5,19.2c-1.4,10,4.9,20.3,14.8,23.3c3.5,1.1,7.4,1.3,11.1,1.3
			c92,0.1,184,0.1,275.9,0c3.1,0,6.3-0.1,9.3-0.8c11.7-2.5,19-14.7,16.1-26.3c-2.7-10.6-11.1-16.8-23-16.8
			C436.6,428.5,389.8,428.5,343,428.5z M380.5,188.3c0.3-0.2,0.8-0.5,1.1-0.8c14.6-14.6,29.4-29,43.7-43.8
			c17.8-18.5,17.4-44.4-0.8-62.8c-9.5-9.7-19.2-19.3-28.8-28.8c-18.6-18.4-45.9-18.3-64.5,0.2c-13.6,13.5-27.1,27.1-40.6,40.6
			c-1,1-1.9,2.1-2.6,2.9C318.9,126.8,349.5,157.4,380.5,188.3z"/>
		<path class="st1" d="M4,457.9c2.9-11.7,6-23.3,8.8-35.1c5.1-21.1,9.9-42.4,15-63.5c0.7-2.9,2.4-5.8,4.5-7.9c73.8-74,147.7-147.8,221.5-221.7
			c0.8-0.8,1.6-1.5,2.2-2c30.9,30.9,61.5,61.5,92.6,92.6c-0.7,0.8-1.9,2-3.1,3.3c-72.9,72.9-145.8,145.9-218.9,218.7
			c-3.1,3-7.4,5.5-11.6,6.5c-31.1,7.6-62.3,14.8-93.5,22.2c-9.4,2.2-12,1.3-17.4-6.3C4,462.5,4,460.2,4,457.9z"/>
		<path class="st1" d="M343,428.5c46.8,0,93.6,0,140.4,0c11.9,0,20.3,6.2,23,16.8c2.9,11.6-4.4,23.8-16.1,26.3c-3,0.6-6.2,0.8-9.3,0.8
			c-92,0-184,0-275.9,0c-3.7,0-7.6-0.2-11.1-1.3c-9.9-3-16.2-13.3-14.8-23.3c1.5-10.5,9.8-18.4,20.5-19.2c1.8-0.1,3.6-0.1,5.4-0.1
			C251,428.5,297,428.5,343,428.5z"/>
		<path class="st1" d="M380.5,188.3c-30.9-30.9-61.6-61.5-92.5-92.4c0.7-0.8,1.6-1.9,2.6-2.9c13.5-13.5,27-27.1,40.6-40.6
			c18.6-18.5,45.9-18.6,64.5-0.2c9.7,9.6,19.3,19.1,28.8,28.8c18.1,18.4,18.6,44.3,0.8,62.8c-14.3,14.8-29.1,29.2-43.7,43.8
			C381.2,187.9,380.8,188.1,380.5,188.3z"/>
	</g>
</g>
</svg>
