<?xml version="1.0" encoding="UTF-8"?>
<!DOCTYPE svg PUBLIC "-//W3C//DTD SVG 1.1//EN" "http://www.w3.org/Graphics/SVG/1.1/DTD/svg11.dtd">
<!-- Creator: CorelDRAW 2018 (64-Bit) -->
<svg xmlns="http://www.w3.org/2000/svg" xml:space="preserve" width="81px" height="81px" version="1.1" style="shape-rendering:geometricPrecision; text-rendering:geometricPrecision; image-rendering:optimizeQuality; fill-rule:evenodd; clip-rule:evenodd"
viewBox="0 0 18.01 18.02"
 xmlns:xlink="http://www.w3.org/1999/xlink">
 <defs>
  <style type="text/css">
   <![CDATA[
    .fil0 {fill:#938556;fill-rule:nonzero}
   ]]>
  </style>
 </defs>
 <g id="Layer_x0020_1">
  <metadata id="CorelCorpID_0Corel-Layer"/>
  <path class="fil0" d="M9.01 0.47c-4.72,0 -8.54,3.83 -8.54,8.54 0,4.71 3.82,8.53 8.54,8.53 4.71,0 8.53,-3.82 8.53,-8.53 0,-4.71 -3.82,-8.54 -8.53,-8.54zm0 17.55c-4.97,0 -9.01,-4.04 -9.01,-9.01 0,-4.97 4.04,-9.01 9.01,-9.01 4.96,0 9,4.04 9,9.01 0,4.97 -4.04,9.01 -9,9.01z"/>
  <polygon class="fil0" points="5.99,4.3 14.29,9.08 5.99,13.87 "/>
 </g>
</svg>
