<?xml version="1.0" encoding="UTF-8"?>
<!DOCTYPE svg PUBLIC "-//W3C//DTD SVG 1.1//EN" "http://www.w3.org/Graphics/SVG/1.1/DTD/svg11.dtd">
<!-- Creator: CorelDRAW 2018 (64-Bit) -->
<svg xmlns="http://www.w3.org/2000/svg" xml:space="preserve" width="37px" height="49px" version="1.1" style="shape-rendering:geometricPrecision; text-rendering:geometricPrecision; image-rendering:optimizeQuality; fill-rule:evenodd; clip-rule:evenodd"
viewBox="0 0 1.07 1.43"
 xmlns:xlink="http://www.w3.org/1999/xlink">
 <defs>
  <style type="text/css">
   <![CDATA[
    .fil0 {fill:#365864}
   ]]>
  </style>
 </defs>
 <g id="Layer_x0020_1">
  <metadata id="CorelCorpID_0Corel-Layer"/>
  <path class="fil0" d="M0.54 0c-0.3,0 -0.54,0.24 -0.54,0.54 0,0.42 0.49,0.86 0.51,0.88 0.01,0.01 0.02,0.01 0.03,0.01 0.01,0 0.02,0 0.03,-0.01 0.02,-0.02 0.5,-0.46 0.5,-0.88 0,-0.3 -0.24,-0.54 -0.53,-0.54l0 0zm0 0.84c-0.17,0 -0.3,-0.14 -0.3,-0.3 0,-0.17 0.13,-0.3 0.3,-0.3 0.16,0 0.3,0.13 0.3,0.3 0,0.16 -0.14,0.3 -0.3,0.3z"/>
 </g>
</svg>
