<?xml version="1.0" encoding="UTF-8"?>
<!DOCTYPE svg PUBLIC "-//W3C//DTD SVG 1.1//EN" "http://www.w3.org/Graphics/SVG/1.1/DTD/svg11.dtd">
<!-- Creator: CorelDRAW 2018 (64-Bit) -->
<svg xmlns="http://www.w3.org/2000/svg" xml:space="preserve" width="58px" height="58px" version="1.1" style="shape-rendering:geometricPrecision; text-rendering:geometricPrecision; image-rendering:optimizeQuality; fill-rule:evenodd; clip-rule:evenodd"
viewBox="0 0 2.99 2.99"
 xmlns:xlink="http://www.w3.org/1999/xlink">
 <defs>
  <style type="text/css">
   <![CDATA[
    .fil1 {fill:white}
    .fil0 {fill:#FCFCFC;fill-opacity:0.349020}
   ]]>
  </style>
 </defs>
 <g id="Layer_x0020_1">
  <metadata id="CorelCorpID_0Corel-Layer"/>
  <path class="fil0" d="M2.99 1.49c0,-0.82 -0.67,-1.49 -1.5,-1.49 -0.82,0 -1.49,0.67 -1.49,1.49 0,0.83 0.67,1.5 1.49,1.5 0.83,0 1.5,-0.67 1.5,-1.5z"/>
  <path class="fil0" d="M2.72 1.49c0,-0.68 -0.55,-1.23 -1.23,-1.23 -0.68,0 -1.23,0.55 -1.23,1.23 0,0.68 0.55,1.23 1.23,1.23 0.68,0 1.23,-0.55 1.23,-1.23z"/>
  <path class="fil1" d="M1.35 2.06c0,0 0,0 0,0 -0.04,0 -0.08,-0.01 -0.11,-0.04l-0.47 -0.49c-0.03,-0.03 -0.04,-0.07 -0.04,-0.1 0,-0.08 0.06,-0.15 0.14,-0.15 0.04,0 0.08,0.02 0.11,0.05l0.36 0.37 0.66 -0.73c0.03,-0.03 0.07,-0.04 0.11,-0.04 0.08,0 0.15,0.06 0.15,0.14 0,0.04 -0.02,0.07 -0.04,0.1l-0.76 0.84c-0.03,0.03 -0.07,0.05 -0.11,0.05l0 0z"/>
 </g>
</svg>
