<?xml version="1.0" encoding="UTF-8"?>
<!DOCTYPE svg PUBLIC "-//W3C//DTD SVG 1.1//EN" "http://www.w3.org/Graphics/SVG/1.1/DTD/svg11.dtd">
<!-- Creator: CorelDRAW 2018 (64-Bit) -->
<svg xmlns="http://www.w3.org/2000/svg" xml:space="preserve" width="2408px" height="2009px" version="1.1" style="shape-rendering:geometricPrecision; text-rendering:geometricPrecision; image-rendering:optimizeQuality; fill-rule:evenodd; clip-rule:evenodd"
viewBox="0 0 2422 2020.28"
 xmlns:xlink="http://www.w3.org/1999/xlink">
 <defs>
  <style type="text/css">
   <![CDATA[
    .fil0 {fill:#142b33;}
   ]]>
  </style>
 </defs>
 <g id="Слой_x0020_1">
  <metadata id="CorelCorpID_0Corel-Layer"/>
  <path class="fil0" d="M2422 1094.66c-3.41,8.77 -6.82,17.05 -10.72,25.82 -21.44,45.8 -57.49,72.11 -107.67,77.95 -11.69,1.46 -23.39,0.98 -35.56,0.98 -520.81,0 -1042.11,0 -1562.92,0 -9.25,0 -18.51,0 -34.1,0 8.77,9.25 14.13,15.1 19.97,20.95 160.29,160.77 320.58,322.03 480.86,482.8 50.67,50.67 65.77,117.9 27.29,169.06 -35.57,47.26 -79.42,90.13 -126.19,126.67 -44.82,34.59 -107.18,24.85 -151.03,-12.18 -5.84,-4.87 -11.69,-10.72 -17.54,-16.08 -285,-285.98 -570.5,-571.47 -855.99,-857.46 -52.13,-52.13 -62.85,-115.46 -28.75,-171.98 7.8,-12.66 18.03,-23.87 28.26,-34.59 285.01,-285.98 570.5,-571.96 856,-857.94 64.79,-64.8 141.28,-64.8 206.08,-0.49 20.95,20.46 41.41,40.93 61.87,61.88 62.85,63.33 62.85,139.82 0,202.67 -161.74,161.75 -323.98,323.49 -485.73,485.24 -5.84,5.85 -11.69,12.18 -20.95,22.41 13.64,0 22.9,0 32.16,0 517.88,0 1035.77,0 1553.65,0 104.75,0 132.03,18.03 170.52,114.01 0.49,53.1 0.49,106.69 0.49,160.28z"/>
 </g>
</svg>
