<?xml version="1.0" encoding="UTF-8"?>
<!DOCTYPE svg PUBLIC "-//W3C//DTD SVG 1.1//EN" "http://www.w3.org/Graphics/SVG/1.1/DTD/svg11.dtd">
<!-- Creator: CorelDRAW 2018 (64-Bit) -->
<svg xmlns="http://www.w3.org/2000/svg" xml:space="preserve" width="1314px" height="1313px" version="1.1" style="shape-rendering:geometricPrecision; text-rendering:geometricPrecision; image-rendering:optimizeQuality; fill-rule:evenodd; clip-rule:evenodd"
viewBox="0 0 726.65 726.06"
 xmlns:xlink="http://www.w3.org/1999/xlink">
 <defs>
  <style type="text/css">
   <![CDATA[
    .fil0 {fill:#142B33}
    .fil1 {fill:none}
   ]]>
  </style>
 </defs>
 <g id="Слой_x0020_1">
  <metadata id="CorelCorpID_0Corel-Layer"/>
  <g id="_2684158688736">
   <g>
    <path class="fil0" d="M315.86 0.3c31.2,0 62.25,0 93.45,0 10.65,3.69 15.68,11.68 18.04,22.32 5.48,23.67 11.54,47.18 17.16,70.69 1.03,4.29 2.81,6.8 7.1,8.43 11.68,4.43 23.06,9.31 34.45,14.49 3.84,1.77 6.8,1.63 10.35,-0.59 18.49,-11.39 37.12,-22.33 55.75,-33.42 13.46,-7.99 21.74,-6.95 32.83,3.99 17.89,17.89 35.64,35.64 53.53,53.53 11.38,11.39 12.27,19.67 4.14,33.42 -10.94,18.34 -21.89,36.82 -33.27,55.16 -2.37,3.99 -2.37,6.95 -0.45,11.09 5.18,11.38 9.91,22.92 14.5,34.45 1.47,3.99 3.54,5.92 7.83,6.95 24.7,5.92 49.39,12.13 74.09,18.19 13.75,3.4 19.37,10.65 19.37,24.69 0,25.88 0,51.91 0,77.79 0,14.49 -5.62,21.59 -19.67,25.13 -24.69,6.22 -49.39,12.13 -74.08,18.49 -2.81,0.74 -5.92,3.55 -7.1,6.36 -5.18,11.24 -9.61,23.07 -14.79,34.31 -1.77,3.99 -1.33,6.8 0.74,10.35 11.09,18.04 21.89,36.22 32.83,54.56 7.98,13.46 7.1,21.89 -3.85,32.83 -17.74,17.89 -35.63,35.78 -53.53,53.53 -11.24,11.24 -19.96,12.27 -33.42,4.14 -17.74,-10.65 -35.63,-21.15 -53.23,-32.09 -4.14,-2.51 -7.25,-2.36 -11.53,-0.44 -11.69,5.47 -23.66,10.35 -35.79,15.08 -3.99,1.63 -5.91,3.7 -6.8,7.84 -5.92,24.69 -11.98,49.39 -18.19,74.08 -3.4,13.61 -10.65,19.37 -24.7,19.37 -25.87,0 -51.9,0 -77.78,0 -14.49,0 -21.59,-5.62 -25.14,-19.81 -6.06,-24.7 -11.97,-49.39 -18.48,-74.09 -0.74,-2.81 -3.7,-5.91 -6.36,-7.09 -11.68,-5.48 -23.81,-9.91 -35.64,-15.38 -3.84,-1.78 -6.65,-1.63 -10.35,0.59 -17.74,10.79 -35.49,21.44 -53.23,32.09 -12.87,7.69 -21.74,6.5 -32.39,-3.99 -18.04,-18.05 -36.08,-35.94 -53.97,-53.98 -10.79,-10.94 -11.98,-19.52 -3.99,-32.83 10.35,-17.45 20.7,-34.89 31.35,-52.05 2.81,-4.43 2.66,-7.69 0.44,-12.12 -5.17,-11.09 -9.76,-22.48 -14.2,-33.87 -1.62,-4.43 -3.84,-6.65 -8.72,-7.83 -23.81,-5.62 -47.47,-11.83 -71.42,-17.3 -10.5,-2.37 -18.04,-7.55 -21.74,-17.75 0,-31.2 0,-62.25 0,-93.46 3.7,-10.2 11.24,-15.37 21.59,-17.74 23.81,-5.47 47.47,-11.83 71.27,-17.45 4.74,-1.18 7.1,-3.4 8.73,-7.84 3.55,-9.9 7.54,-19.81 11.98,-29.42 1.77,-3.85 1.77,-6.66 -0.45,-10.35 -12.12,-19.97 -24.1,-39.93 -36.08,-59.89 -8.13,-13.61 -7.1,-22.48 3.85,-33.42 17.74,-17.9 35.63,-35.64 53.53,-53.53 11.24,-11.24 19.52,-12.13 33.42,-3.85 19.22,11.54 38.44,22.92 57.52,34.6 3.99,2.52 6.95,2.37 11.09,0.45 11.98,-5.47 24.1,-10.65 36.38,-15.53 4.43,-1.77 6.65,-3.84 7.83,-8.72 5.62,-23.81 11.83,-47.47 17.3,-71.28 2.52,-10.65 7.69,-18.19 17.9,-21.88zm47.17 213.67c-81.63,-0.29 -148.61,66.4 -148.91,148.32 -0.29,81.63 66.4,148.61 148.32,148.91 81.62,0.29 148.61,-66.4 148.91,-148.32 0.14,-81.48 -66.55,-148.61 -148.32,-148.91z"/>
    <path class="fil1" d="M0.3 409.31c3.69,10.21 11.23,15.38 21.73,17.75 23.81,5.47 47.47,11.83 71.43,17.3 4.73,1.18 6.95,3.4 8.72,7.84 4.44,11.38 9.02,22.77 14.2,33.86 2.07,4.58 2.21,7.84 -0.45,12.13 -10.79,17.15 -21,34.6 -31.35,52.05 -7.98,13.31 -6.95,22.03 4,32.83 18.04,18.04 35.93,36.08 53.97,53.97 10.65,10.5 19.52,11.68 32.38,3.99 17.75,-10.65 35.64,-21.29 53.24,-32.09 3.55,-2.21 6.36,-2.36 10.35,-0.59 11.83,5.33 23.96,9.91 35.64,15.38 2.66,1.18 5.62,4.29 6.36,7.1 6.35,24.55 12.27,49.39 18.48,74.08 3.55,14.2 10.65,19.82 25.14,19.82 25.88,0 51.9,0 77.78,0 14.05,0 21.29,-5.77 24.69,-19.37 6.22,-24.7 12.28,-49.39 18.19,-74.09 1.04,-4.14 2.81,-6.36 6.81,-7.83 11.97,-4.74 23.95,-9.62 35.78,-15.09 4.29,-1.92 7.39,-2.07 11.54,0.45 17.59,10.94 35.49,21.44 53.23,32.08 13.6,8.14 22.33,6.95 33.42,-4.14 17.89,-17.89 35.64,-35.63 53.53,-53.53 10.94,-11.09 11.98,-19.37 3.84,-32.82 -10.94,-18.19 -21.73,-36.38 -32.82,-54.57 -2.22,-3.55 -2.67,-6.36 -0.74,-10.35 5.17,-11.39 9.61,-23.07 14.78,-34.31 1.19,-2.66 4.29,-5.62 7.1,-6.36 24.55,-6.35 49.39,-12.27 74.09,-18.48 14.04,-3.55 19.66,-10.65 19.66,-25.14 0,-25.88 0,-51.9 0,-77.78 0,-14.05 -5.76,-21.29 -19.37,-24.7 -24.69,-6.21 -49.39,-12.27 -74.08,-18.18 -4.14,-1.04 -6.21,-2.96 -7.84,-6.95 -4.58,-11.69 -9.31,-23.07 -14.49,-34.46 -1.78,-4.14 -1.92,-7.1 0.44,-11.09 11.24,-18.19 22.18,-36.67 33.27,-55.16 8.29,-13.75 7.25,-22.03 -4.14,-33.42 -17.89,-17.89 -35.63,-35.78 -53.53,-53.53 -11.09,-11.09 -19.37,-12.12 -32.82,-3.99 -18.64,11.09 -37.27,22.18 -55.75,33.42 -3.7,2.22 -6.51,2.37 -10.35,0.59 -11.39,-5.17 -22.92,-10.05 -34.46,-14.49 -4.29,-1.62 -6.06,-3.99 -7.1,-8.43 -5.62,-23.66 -11.68,-47.02 -17.15,-70.68 -2.51,-10.65 -7.39,-18.63 -18.04,-22.33 105.73,0 211.31,0 317.04,0 0,242.07 0,483.99 0,726.06 -242.07,0 -483.99,0 -726.06,0 -0.29,-105.43 -0.29,-211.02 -0.29,-316.75z"/>
    <path class="fil1" d="M315.86 0.3c-10.21,3.69 -15.38,11.23 -17.75,21.59 -5.47,23.8 -11.83,47.46 -17.3,71.27 -1.18,4.73 -3.4,6.95 -7.84,8.73 -12.27,4.87 -24.39,10.05 -36.37,15.52 -3.99,1.78 -7.1,1.92 -11.09,-0.44 -19.08,-11.68 -38.3,-23.07 -57.53,-34.6 -13.9,-8.29 -22.18,-7.4 -33.41,3.84 -17.9,17.74 -35.64,35.64 -53.54,53.53 -11.09,11.09 -11.97,19.82 -3.84,33.42 11.98,19.96 23.81,40.07 36.08,59.89 2.22,3.55 2.22,6.51 0.44,10.35 -4.43,9.61 -8.42,19.37 -11.97,29.43 -1.63,4.43 -3.85,6.65 -8.73,7.83 -23.81,5.62 -47.47,11.83 -71.27,17.45 -10.5,2.37 -18.04,7.54 -21.59,17.75 0,-105.14 0,-210.13 0,-315.56 105.28,0 210.57,0 315.71,0z"/>
    <path class="fil1" d="M363.03 213.97c81.77,0.3 148.46,67.29 148.32,148.91 -0.3,81.78 -67.29,148.47 -148.91,148.32 -81.78,-0.3 -148.47,-67.28 -148.32,-148.91 0.15,-81.77 67.28,-148.61 148.91,-148.32z"/>
   </g>
  </g>
 </g>
</svg>
