<?xml version="1.0" encoding="utf-8"?>
<!-- Generator: Adobe Illustrator 24.0.2, SVG Export Plug-In . SVG Version: 6.00 Build 0)  -->
<svg version="1.1" id="Слой_1" xmlns="http://www.w3.org/2000/svg" xmlns:xlink="http://www.w3.org/1999/xlink" x="0px" y="0px"
	 viewBox="0 0 512 512" style="enable-background:new 0 0 512 512;" xml:space="preserve">
<style type="text/css">
	.st0{fill: none;}
	.st1{fill: #142b33;}
</style>
<g>
	<g>
		<path class="st0" d="M3,33.5C3,22,3,10.5,3-1c168.4,0,336.8,0,505.2,0c0,168.4,0,336.8,0,505.2c-168.4,0-336.8,0-505.2,0
			c0-10.8,0-21.7,0-32.5c1.3,2.6,2.3,5.4,4.1,7.6c5.9,7.4,14.2,8.5,24.9,3.6c153.4-70.8,306.8-141.6,460.2-212.3
			c8.3-3.8,15-8.7,14.9-18.7c-0.1-10-6.9-14.7-15.2-18.5C338.8,162.8,185.6,92.3,32.7,21.3C21,15.9,6.4,18.3,3,33.5z"/>
		<path class="st1" d="M3,33.5c3.4-15.2,18-17.5,29.7-12.1c153,70.9,306.1,141.5,459.2,212.1c8.3,3.8,15.1,8.6,15.2,18.5
			c0.1,10-6.6,14.9-14.9,18.7C338.8,341.3,185.4,412.1,32,482.9c-10.7,4.9-19,3.8-24.9-3.6c-1.8-2.2-2.8-5.1-4.1-7.6
			c0-2.3,0-4.6,0-6.9c2.2-3.8,4-7.8,6.6-11.3c46.9-62.7,94-125.4,141-188.1c3.3-4.4,6.6-8.9,9.9-13.3c-1.2-1.6-2.1-3-3.1-4.3
			C108.7,182.9,60,118,11.4,53C8.2,48.8,5.8,43.9,3,39.4C3,37.4,3,35.4,3,33.5z"/>
		<path class="st0" d="M3,39.4c2.8,4.6,5.2,9.4,8.4,13.7c48.6,65,97.3,129.9,146,194.8c1,1.3,1.9,2.6,3.1,4.3
			c-3.3,4.4-6.6,8.9-9.9,13.3c-47,62.7-94,125.4-141,188.1C7,457,5.2,461,3,464.8C3,323,3,181.2,3,39.4z"/>
	</g>
</g>
</svg>
