<?xml version="1.0" encoding="utf-8"?>
<!-- Generator: Adobe Illustrator 24.0.2, SVG Export Plug-In . SVG Version: 6.00 Build 0)  -->
<svg version="1.1" id="Слой_1" xmlns="http://www.w3.org/2000/svg" xmlns:xlink="http://www.w3.org/1999/xlink" x="0px" y="0px"
	 viewBox="0 0 512 512" style="enable-background:new 0 0 512 512;" xml:space="preserve">
<style type="text/css">
	.st0{fill:#FFFFFF;}
	.st1{fill: #142B33;}
</style>
<g>
	<g>
		<path class="st0" d="M6,269.2C6,181.5,6,93.8,6,6c166.6,0,333.3,0,500,0c0,166.6,0,333.2,0,500c-166.6,0-333.3,0-500,0
			c0-18.7,0-37.5,0-56.4c0.3,0.7,0.7,1.4,0.9,2.2c4.7,24.7,24.7,42.2,49.7,42.7c21.8,0.4,43.5,0.1,65.3,0.1c9.2,0,17.5-2.9,25.4-7.4
			c3.2-1.8,4.3-4,4.3-7.8c-0.1-83.2-0.1-166.4-0.1-249.6c0-1.7-0.1-3.4-0.2-5.1c-0.9-0.2-1.4-0.3-1.8-0.3c-31.2,0-62.4-0.3-93.6,0.2
			c-16,0.2-28.9,7.6-39,20.1C11,251.9,8.3,260.5,6,269.2z M322.4,182.7c0.7-2.5,1.2-4.4,1.8-6.2c6.4-20.5,11.5-41.2,13.8-62.6
			c3.8-35.7-8.7-64.6-36.4-87.1c-9.5-7.7-20.4-11.9-33-9.9c-9.4,1.5-18.1,4.8-26.3,9.7c-5.3,3.1-7.6,7.3-7.5,13.6
			c0.3,20.6,0.2,41.3,0,61.9c0,3.4-0.8,7.1-2.2,10.2c-15.8,34.7-31.9,69.3-47.8,103.9c-2.9,6.3-5.9,12.7-8.8,19
			c-1.2,2.6-3.3,5.3-3.3,7.9c-0.2,71.5-0.1,143-0.2,214.5c0,3.3,1.1,4.8,4.1,6c16,6.4,32.4,10.4,49.7,10.5c32.5,0.1,65,0,97.5,0
			c30.7,0,61.4,0.1,92.1-0.1c23.6-0.2,43.1-16.2,47.1-38.8c1.7-9.8,0.3-19.4-3.9-28.4c23.9-15.5,30.8-36.3,21-62.7
			c28-15.9,33.6-50.9,11.9-74.6c1-1.3,2-2.5,2.9-3.8c15.6-20.9,13.3-49.3-5.5-67.4c-11.5-11.1-25.5-15.6-41.2-15.6
			c-39.8,0-79.6,0-119.4,0C326.8,182.7,324.9,182.7,322.4,182.7z"/>
		<path class="st1" d="M6,269.2c2.3-8.8,5-17.4,10.9-24.6c10-12.4,23-19.8,39-20.1c31.2-0.4,62.4-0.2,93.6-0.2c0.5,0,0.9,0.2,1.8,0.3
			c0.1,1.7,0.2,3.4,0.2,5.1c0,83.2,0,166.4,0.1,249.6c0,3.7-1.1,5.9-4.3,7.8c-7.9,4.5-16.2,7.4-25.4,7.4c-21.8,0-43.5,0.3-65.3-0.1
			c-25-0.5-45-18-49.7-42.7c-0.1-0.8-0.6-1.5-0.9-2.2C6,389.5,6,329.4,6,269.2z"/>
		<path class="st1" d="M322.4,182.7c2.5,0,4.4,0,6.3,0c39.8,0,79.6,0,119.4,0c15.8,0,29.7,4.6,41.2,15.6c18.8,18.1,21.1,46.5,5.5,67.4
			c-1,1.3-2,2.6-2.9,3.8c21.7,23.7,16,58.7-11.9,74.6c9.8,26.3,2.9,47.2-21,62.7c4.2,9,5.6,18.6,3.9,28.4
			c-4,22.5-23.4,38.6-47.1,38.8c-30.7,0.2-61.4,0.1-92.1,0.1c-32.5,0-65,0-97.5,0c-17.3,0-33.7-4.1-49.7-10.5c-3-1.2-4.1-2.7-4.1-6
			c0.1-71.5,0-143,0.2-214.5c0-2.7,2.1-5.3,3.3-7.9c2.9-6.3,5.8-12.7,8.8-19c16-34.6,32-69.2,47.8-103.9c1.4-3.1,2.2-6.8,2.2-10.2
			c0.2-20.6,0.3-41.3,0-61.9c-0.1-6.3,2.2-10.5,7.5-13.6c8.2-4.9,16.9-8.2,26.3-9.7c12.6-2,23.5,2.2,33,9.9
			c27.7,22.5,40.2,51.4,36.4,87.1c-2.3,21.4-7.4,42.1-13.8,62.6C323.6,178.3,323.1,180.2,322.4,182.7z"/>
	</g>
</g>
</svg>
