<?xml version="1.0" encoding="utf-8"?>
<!-- Generator: Adobe Illustrator 24.0.2, SVG Export Plug-In . SVG Version: 6.00 Build 0)  -->
<svg version="1.1" id="Слой_1" xmlns="http://www.w3.org/2000/svg" xmlns:xlink="http://www.w3.org/1999/xlink" x="0px" y="0px"
	 viewBox="0 0 512 512" style="enable-background:new 0 0 512 512;" xml:space="preserve">
<style type="text/css">
	.st0{fill:#FFFFFF;}
	.st1 {fill: #142B33;}
</style>
<g>
	<g>
		<path class="st0" d="M7,247.3C7,167.5,7,87.8,7,8c165.6,0,331.2,0,497,0c0,165.6,0,331.3,0,497c-25.7,0-51.6,0-77.4,0
			c0.9-0.3,1.8-0.7,2.7-0.8c47-6.7,79.4-48.5,72.8-95.5c-5-36-25.8-60.4-60.6-70.5c-34.6-10.1-64.6-0.2-88.8,26.6
			c-3.2,3.6-5.8,7.6-8.9,11.7c-52.5-28.6-104.8-57.1-157.1-85.6c0.7-2.2,1.1-3.7,1.6-5.2c6.3-19.2,6.5-38.4-0.2-57.5
			c-1.5-4.3-0.2-5.8,3.3-7.7c42.7-23.1,85.3-46.4,127.9-69.7c8.2-4.5,16.4-8.9,24.2-13.2c0.6,0.3,0.8,0.3,0.9,0.4
			c0.6,0.8,1.2,1.5,1.7,2.3c20.1,28.9,47.7,42.1,82.8,38.1c47.8-5.4,82.1-52.9,72.6-100C492.6,33,452.4,4.2,405.9,9.8
			c-44.6,5.4-78.6,49.1-72.6,93.6c0.5,3.7-0.9,5.1-3.8,6.6c-51.3,27.9-102.5,55.8-153.7,83.9c-3.7,2-5.7,1.8-8.9-1.3
			c-25.3-25.3-55.9-34.4-90.5-25.4c-34,8.8-55.9,31.4-66.1,65.1C8.9,237.2,8.1,242.3,7,247.3z"/>
		<path class="st1" d="M7,247.3c1.1-5,1.9-10.1,3.4-15c10.2-33.7,32.1-56.2,66.1-65.1c34.6-9,65.1,0.1,90.5,25.4c3.1,3.1,5.1,3.3,8.9,1.3
			c51.2-28.1,102.4-56,153.7-83.9c2.9-1.6,4.3-2.9,3.8-6.6c-6-44.5,28.1-88.2,72.6-93.6c46.5-5.6,86.6,23.2,95.8,68.7
			c9.5,47.1-24.8,94.6-72.6,100c-35.1,4-62.7-9.2-82.8-38.1c-0.5-0.8-1.1-1.6-1.7-2.3c-0.1-0.1-0.3-0.1-0.9-0.4
			c-7.9,4.3-16.1,8.7-24.2,13.2c-42.6,23.2-85.2,46.5-127.9,69.7c-3.5,1.9-4.8,3.4-3.3,7.7c6.6,19.1,6.5,38.3,0.2,57.5
			c-0.5,1.5-0.9,3.1-1.6,5.2c52.3,28.5,104.6,57,157.1,85.6c3-4,5.7-8.1,8.9-11.7c24.2-26.9,54.2-36.7,88.8-26.6
			c34.8,10.1,55.6,34.5,60.6,70.5c6.5,47-25.9,88.7-72.8,95.5c-0.9,0.1-1.8,0.5-2.7,0.8c-5.8,0-11.6,0-17.4,0
			c-1.4-0.3-2.8-0.8-4.2-1c-44.3-6-77.6-49.4-71.7-93.5c0.4-3.2-0.4-4.8-3.3-6.4c-51.4-28-102.8-56-154.2-84.2
			c-3.7-2-5.7-1.9-8.9,1.3c-25.3,25.4-55.9,34.5-90.5,25.4c-34-8.9-55.9-31.4-66.1-65.1c-1.5-4.9-2.3-10-3.4-15
			C7,260.2,7,253.7,7,247.3z"/>
		<path class="st0" d="M7,266.7c1.1,5,1.9,10.1,3.4,15c10.2,33.7,32.1,56.2,66.1,65.1c34.6,9,65.1-0.1,90.5-25.4
			c3.1-3.1,5.2-3.3,8.9-1.3c51.3,28.2,102.7,56.2,154.2,84.2c2.9,1.6,3.7,3.2,3.3,6.4c-5.9,44.1,27.4,87.4,71.7,93.5
			c1.4,0.2,2.8,0.6,4.2,1c-134,0-267.9,0-402.2,0C7,425.6,7,346.1,7,266.7z"/>
	</g>
</g>
</svg>
