<?xml version="1.0" encoding="UTF-8"?>
<!DOCTYPE svg PUBLIC "-//W3C//DTD SVG 1.1//EN" "http://www.w3.org/Graphics/SVG/1.1/DTD/svg11.dtd">
<!-- Creator: CorelDRAW 2018 (64-Bit) -->
<svg xmlns="http://www.w3.org/2000/svg" xml:space="preserve" width="49px" height="50px" version="1.1" style="shape-rendering:geometricPrecision; text-rendering:geometricPrecision; image-rendering:optimizeQuality; fill-rule:evenodd; clip-rule:evenodd"
viewBox="0 0 5.7 5.81"
 xmlns:xlink="http://www.w3.org/1999/xlink">
 <defs>
  <style type="text/css">
   <![CDATA[
    .fil0 {fill:#938556;fill-rule:nonzero}
   ]]>
  </style>
 </defs>
 <g id="Layer_x0020_1">
  <metadata id="CorelCorpID_0Corel-Layer"/>
  <g id="_2327758678928">
   <g id="surface1">
    <path class="fil0" d="M3.97 3.45c0.69,-0.99 0.46,-2.35 -0.52,-3.05 -0.99,-0.7 -2.35,-0.46 -3.05,0.52 -0.7,0.99 -0.46,2.35 0.52,3.05 0.71,0.5 1.63,0.53 2.38,0.1l1.61 1.6c0.17,0.18 0.46,0.19 0.64,0.01 0.19,-0.17 0.19,-0.46 0.02,-0.64 -0.01,-0.01 -0.01,-0.01 -0.02,-0.02l-1.58 -1.57zm-1.79 0.15c-0.77,0 -1.41,-0.63 -1.41,-1.41 0,-0.78 0.63,-1.41 1.41,-1.41 0.78,0 1.41,0.63 1.41,1.4 0,0.78 -0.63,1.42 -1.41,1.42 0,0 0,0 0,0zm0 0z"/>
   </g>
  </g>
 </g>
</svg>
