<?xml version="1.0" encoding="UTF-8"?>
<!DOCTYPE svg PUBLIC "-//W3C//DTD SVG 1.1//EN" "http://www.w3.org/Graphics/SVG/1.1/DTD/svg11.dtd">
<!-- Creator: CorelDRAW 2018 (64-Bit) -->
<svg xmlns="http://www.w3.org/2000/svg" xml:space="preserve" version="1.1" style="shape-rendering:geometricPrecision; text-rendering:geometricPrecision; image-rendering:optimizeQuality; fill-rule:evenodd; clip-rule:evenodd"
viewBox="0 0 49.58 8.73"
 xmlns:xlink="http://www.w3.org/1999/xlink">
 <defs>
  <style type="text/css">
   <![CDATA[
    .fil0 {fill:#142B33;fill-rule:nonzero}
   ]]>
  </style>
 </defs>
 <g id="Layer_x0020_1">
  <metadata id="CorelCorpID_0Corel-Layer"/>
  <path class="fil0" d="M12.89 8.5l-2.84 0c0.22,-0.41 0.34,-0.83 0.34,-1.24l0 -5.32c0,-0.4 -0.12,-0.81 -0.34,-1.23l2.51 -0.71 0 3.95c0.1,-1.33 0.78,-2.46 1.91,-2.97 1.32,-0.58 2.9,-0.22 3.83,0.88 -1.51,-1.53 -4.29,-0.82 -4.82,1.36 0.79,-0.11 1.94,0.46 2.2,1.52 0.24,1 0.95,2.15 2.39,1.54 0.35,-0.15 0.81,-0.23 1.19,-0.16 -0.1,0.05 -0.18,0.12 -0.26,0.21 0.22,0.17 0.34,0.44 0.31,0.72 0.05,0.07 0.15,0.2 0.15,0.22 0,0.01 -0.05,0.19 -0.22,0.26 -0.53,-0.22 -1.02,-0.67 -1.02,-0.67 0.82,1.32 2.89,1.4 2.89,1.4l0.42 0c0.15,0 0.27,0.13 0.26,0.28l-4.25 0c-1.25,0 -2.41,-0.42 -3.33,-1.12 -0.31,-1.06 0.78,-1.78 0.78,-1.78 -1.12,0.51 -1.05,1.57 -1.05,1.57 0.01,0.33 0.11,0.65 0.29,0.92l0.17 0c0.11,0 0.2,0.08 0.2,0.19 0,0.11 -0.09,0.19 -0.2,0.19l-0.59 0c-0.18,-0.42 -0.42,-0.81 -0.72,-1.16 0.11,-0.42 0.06,-0.88 -0.15,-1.26 -0.16,-0.23 -0.29,-0.49 -0.38,-0.75l0 1.92c0,0.38 0.11,0.79 0.33,1.24zm-10.43 -0.59c0.02,0.01 0.06,0.02 0.12,0.02 0.29,0 0.58,-0.19 0.87,-0.58 -0.02,-0.03 -0.02,-0.09 -0.02,-0.16l0 -2.26c-0.3,0.08 -0.61,0.29 -0.94,0.61 -0.32,0.32 -0.5,0.75 -0.53,1.29 -0.05,0.64 0.12,1 0.5,1.08zm3.43 0.59l-1.4 0c-0.6,0 -0.94,-0.31 -1.03,-0.93 -0.15,0.26 -0.38,0.5 -0.69,0.72 -0.3,0.21 -0.65,0.33 -1.05,0.35 -1.15,0 -1.72,-0.44 -1.72,-1.32 0,-0.46 0.16,-0.86 0.47,-1.22 0.31,-0.36 0.68,-0.63 1.13,-0.8 0.44,-0.18 0.81,-0.3 1.11,-0.39 0.3,-0.08 0.54,-0.13 0.72,-0.14 0.12,-1.04 -0.15,-1.56 -0.81,-1.56l-0.11 0c-0.33,0.03 -0.6,0.22 -0.8,0.57 -0.19,0.35 -0.3,0.72 -0.31,1.11 0,0.06 -0.02,0.07 -0.07,0.02 -0.06,-0.09 -0.18,-0.26 -0.37,-0.5 -0.19,-0.24 -0.29,-0.38 -0.31,-0.41 -0.04,-0.04 -0.04,-0.09 0,-0.15 0.21,-0.32 0.52,-0.57 0.93,-0.74 0.41,-0.17 0.78,-0.26 1.13,-0.26 0.32,0 0.63,0.03 0.91,0.1 0.29,0.06 0.59,0.18 0.9,0.35 0.31,0.16 0.56,0.44 0.75,0.81 0.18,0.38 0.28,0.84 0.28,1.38l0 1.83c0,0.33 0.11,0.73 0.34,1.18zm16.2 -1.21c0,0.41 0.11,0.81 0.34,1.23l-0.34 0c0,-0.16 -0.06,-0.3 -0.16,-0.4l0 0c-0.11,-0.1 -0.25,-0.16 -0.4,-0.16l-0.42 0 0 0c-0.09,-0.01 -0.64,-0.04 -1.23,-0.25 0.02,-0.14 0.04,-0.28 0.04,-0.42l0 -2.42c0,-0.36 -0.11,-0.77 -0.34,-1.22 0.12,0.01 0.26,0.01 0.43,0.01 1,0 1.69,-0.21 2.06,-0.64l0.02 4.27zm-0.33 -4.68c-0.22,0.23 -0.48,0.34 -0.79,0.34 -0.31,0 -0.58,-0.11 -0.8,-0.33 -0.23,-0.22 -0.34,-0.48 -0.34,-0.79 0,-0.31 0.11,-0.57 0.34,-0.79 0.22,-0.22 0.49,-0.33 0.8,-0.33 0.31,0 0.57,0.11 0.79,0.33 0.22,0.22 0.33,0.48 0.33,0.79 0,0.3 -0.11,0.56 -0.33,0.78zm1.13 0.68c-0.07,0 -0.11,-0.04 -0.11,-0.12l0 -0.06c0,-0.08 0.04,-0.12 0.11,-0.12l0.03 0c0.54,0 1.03,-0.18 1.49,-0.54 0.45,-0.35 0.78,-0.71 0.97,-1.06l0.3 -0.52 0.07 0 0 2.12 0.2 0c0.46,0 0.89,-0.08 1.3,-0.22 0.4,-0.15 0.72,-0.33 0.96,-0.54 0.23,-0.21 0.43,-0.41 0.6,-0.61 0.17,-0.2 0.28,-0.38 0.34,-0.52l0.1 -0.23 0.08 0 0 2.12 1.26 0c0.08,0 0.12,0.04 0.12,0.12l0 0.06c0,0.08 -0.04,0.12 -0.12,0.12l-1.26 0 0 2.74c0.01,0.91 0.28,1.39 0.81,1.42 0.28,0 0.51,-0.14 0.7,-0.42 0.02,-0.03 0.04,-0.04 0.05,-0.04 0.04,0 0.05,0.02 0.05,0.07 -0.01,0.4 -0.15,0.77 -0.42,1.09 -0.28,0.33 -0.65,0.51 -1.12,0.55 -1.49,0 -2.23,-0.79 -2.23,-2.37l0 -3.04 -1.42 0 0 2.97c0,0.68 0.05,1.16 0.13,1.44 0.09,0.29 0.29,0.48 0.58,0.57 0.09,0.04 0.1,0.08 0.04,0.14 -0.24,0.22 -0.57,0.32 -0.98,0.32 -0.58,0 -1.05,-0.18 -1.41,-0.53 -0.35,-0.36 -0.53,-0.91 -0.53,-1.67l0.02 -3.24 -0.71 0zm10.29 1.39c-0.02,0.54 0.08,1.02 0.31,1.42 0.26,-0.08 0.5,-0.25 0.74,-0.52 0.23,-0.26 0.37,-0.58 0.43,-0.96 0.05,-0.27 0.01,-0.57 -0.11,-0.89 -0.11,-0.33 -0.3,-0.5 -0.55,-0.51 -0.25,-0.01 -0.44,0.14 -0.58,0.46 -0.15,0.32 -0.22,0.65 -0.24,1zm3.56 1.99l0.04 -0.02c0.03,0 0.05,0.02 0.05,0.05 -0.06,0.54 -0.32,1 -0.79,1.37 -0.47,0.38 -1.01,0.59 -1.63,0.61 -0.86,0 -1.57,-0.24 -2.12,-0.73 -0.55,-0.49 -0.85,-1.16 -0.9,-2.01 -0.04,-0.76 0.17,-1.44 0.62,-2.04 0.45,-0.6 1.15,-0.92 2.1,-0.97 0.02,0 0.06,0 0.12,0 0.05,-0.01 0.09,-0.01 0.11,-0.01 0.63,0 1.15,0.17 1.57,0.5 0.41,0.34 0.58,0.74 0.51,1.19 -0.05,0.28 -0.18,0.53 -0.39,0.75 -0.21,0.22 -0.47,0.39 -0.78,0.52 -0.31,0.12 -0.6,0.22 -0.87,0.28 -0.28,0.07 -0.54,0.11 -0.79,0.14 0.38,0.61 0.94,0.92 1.68,0.92 0.61,0 1.1,-0.18 1.47,-0.55zm0.71 -3.29l2.49 -0.62 0 1.12c0.29,-0.6 0.76,-0.91 1.43,-0.95 0.76,0 1.32,0.25 1.7,0.73 0.38,0.49 0.57,1.13 0.57,1.92l0 1.78c0,0.39 0.12,0.78 0.34,1.16l-1.39 0c-0.7,0 -1.05,-0.43 -1.05,-1.28l0 -2.3c0,-1 -0.27,-1.51 -0.83,-1.51 -0.26,0.04 -0.46,0.22 -0.59,0.56 -0.13,0.34 -0.18,0.72 -0.16,1.13l0 2.17c0,0.41 0.11,0.81 0.34,1.23l-2.85 0c0.23,-0.42 0.34,-0.82 0.34,-1.23l0 -2.68c0,-0.41 -0.11,-0.82 -0.34,-1.23zm11.1 1.72c-0.02,-0.55 -0.17,-1.01 -0.45,-1.37 -0.28,-0.37 -0.68,-0.55 -1.2,-0.55 -0.24,0 -0.45,0.06 -0.63,0.17 -0.19,0.12 -0.26,0.27 -0.23,0.47 0.02,0.06 0.04,0.12 0.07,0.17 0.04,0.06 0.09,0.11 0.16,0.15 0.06,0.05 0.12,0.09 0.17,0.13 0.06,0.03 0.14,0.08 0.25,0.14 0.12,0.06 0.21,0.11 0.28,0.16 0.11,0.07 0.29,0.18 0.55,0.31 0.26,0.14 0.49,0.27 0.69,0.38l0.31 0.16c0.73,0.44 1.09,0.97 1.06,1.59 -0.01,0.53 -0.25,0.94 -0.74,1.22 -0.48,0.29 -1.02,0.44 -1.64,0.45 -0.59,0 -1.12,-0.08 -1.58,-0.23 -0.47,-0.16 -0.8,-0.35 -1,-0.59 -0.02,-0.02 -0.02,-0.06 0,-0.12l0.48 -1.44c0.01,-0.02 0.03,-0.02 0.05,-0.02 0.01,0 0.02,0.01 0.02,0.03 0.03,0.41 0.22,0.83 0.58,1.28 0.36,0.45 0.81,0.7 1.34,0.75l0.07 0c0.26,0 0.51,-0.05 0.73,-0.14 0.23,-0.1 0.34,-0.24 0.32,-0.43 -0.01,-0.06 -0.03,-0.11 -0.07,-0.17 -0.03,-0.05 -0.09,-0.1 -0.16,-0.16 -0.07,-0.05 -0.14,-0.1 -0.2,-0.13 -0.07,-0.04 -0.16,-0.09 -0.29,-0.15 -0.12,-0.07 -0.22,-0.12 -0.29,-0.17 -0.33,-0.2 -0.84,-0.47 -1.51,-0.8 -0.7,-0.42 -1.05,-0.95 -1.03,-1.6 0.01,-0.55 0.26,-0.96 0.74,-1.23 0.49,-0.27 1.07,-0.41 1.75,-0.41 0.42,0 0.86,0.09 1.3,0.25 0.45,0.17 0.77,0.36 0.97,0.59 0.03,0.02 0.03,0.06 0,0.12 -0.06,0.07 -0.19,0.28 -0.4,0.61 -0.2,0.33 -0.34,0.53 -0.4,0.6 -0.02,0.01 -0.04,0.01 -0.07,-0.02zm-39.23 3.4l-2.85 0c0.23,-0.41 0.34,-0.83 0.34,-1.24l0 -4.41c0,-0.4 -0.11,-0.81 -0.34,-1.25l2.49 -0.71 0.02 6.37c0,0.41 0.11,0.83 0.34,1.24z"/>
 </g>
</svg>
