<?xml version="1.0" encoding="UTF-8"?>
<!DOCTYPE svg PUBLIC "-//W3C//DTD SVG 1.1//EN" "http://www.w3.org/Graphics/SVG/1.1/DTD/svg11.dtd">
<!-- Creator: CorelDRAW 2018 (64-Bit) -->
<svg xmlns="http://www.w3.org/2000/svg" xml:space="preserve" width="1168px" height="683px" version="1.1" style="shape-rendering:geometricPrecision; text-rendering:geometricPrecision; image-rendering:optimizeQuality; fill-rule:evenodd; clip-rule:evenodd"
viewBox="0 0 1168 682.74"
 xmlns:xlink="http://www.w3.org/1999/xlink">
 <defs>
  <style type="text/css">
   <![CDATA[
    .fil2 {fill:#15252B}
    .fil1 {fill:#2C4654}
    .fil0 {fill:#D28E3F}
    .fil3 {fill:#FEFAD7}
   ]]>
  </style>
 </defs>
 <g id="Layer_x0020_1">
  <metadata id="CorelCorpID_0Corel-Layer"/>
  <path class="fil0" d="M1008.28 26.8l-107.85 -22.03c-2.82,-0.6 -5.65,-1.12 -8.54,-1.58 -16.31,-2.7 -33.35,-3.68 -50.97,-2.96 -5.85,0.26 -11.83,0.66 -17.82,1.31l0 0 0 0 107.84 22.03c24.07,-2.5 47.02,-1.97 68.79,1.65 1.45,0.26 2.89,0.46 4.27,0.79 1.45,0.2 2.83,0.46 4.27,0.79l0 0 0 0 0.01 0z"/>
  <polygon class="fil1" points="862.75,163.44 754.91,141.48 823.1,1.55 930.88,23.51 "/>
  <path class="fil2" d="M1060.69 241.63c-1.51,-16.77 -5.92,-31.7 -13.35,-44.85 -7.43,-13.08 -17.1,-23.67 -29.06,-31.63 -10.13,-6.77 -21.37,-11.77 -33.87,-14.86 -1.78,-0.46 -3.61,-0.85 -5.39,-1.25l-92.46 -18.87 0 1.12c8.61,3.02 16.57,6.97 23.94,11.9 11.97,8.02 21.63,18.54 29.06,31.63 7.43,13.08 11.84,28.08 13.35,44.85 1.52,17.22 -0.13,33.6 -5.06,48.98 -4.87,15.39 -12.23,29.27 -21.96,41.5 -9.73,12.29 -21.84,22.68 -36.3,31.3 -14.47,8.61 -30.45,14.73 -48.07,18.41l-214.77 44.58 107.84 22.03 214.77 -44.58c17.62,-3.68 33.6,-9.8 48.07,-18.41 14.47,-8.62 26.57,-19.07 36.3,-31.3 9.73,-12.23 17.1,-26.11 21.96,-41.5 4.87,-15.45 6.58,-31.75 5,-49.05l0 0z"/>
  <polygon class="fil2" points="107.38,682.74 0,660.78 739.52,505.98 849.39,528.43 "/>
  <path class="fil3" d="M1082.19 57.44c23.74,16.31 43.01,37.68 57.87,64.12 14.86,26.43 23.8,56.94 26.83,91.47 3.09,34.98 -0.26,68.72 -10.13,101.27 -9.79,32.55 -24.72,62.01 -44.65,88.31 -19.92,26.37 -44.51,48.93 -73.64,67.67 -29.2,18.74 -61.55,31.83 -97.13,39.19l-274.85 57.1 68.17 -140.09 214.77 -44.58c17.62,-3.69 33.6,-9.8 48.07,-18.42 14.47,-8.61 26.56,-19.07 36.3,-31.3 9.73,-12.23 17.1,-26.1 21.96,-41.49 4.87,-15.39 6.58,-31.76 5.06,-48.99 -1.51,-16.77 -5.91,-31.7 -13.35,-44.85 -7.42,-13.08 -17.09,-23.67 -29.06,-31.63 -11.97,-8.02 -25.58,-13.48 -40.84,-16.44 -15.25,-2.96 -31.49,-2.62 -48.66,0.99l-66.09 13.75 68.06 -140.01c24.07,-2.5 47.02,-1.97 68.79,1.65 31.3,5.26 58.85,15.97 82.52,32.28l0 0z"/>
  <path class="fil0" d="M1080.48 378.67c17.03,-22.49 29.92,-48 38.34,-75.82 8.29,-27.55 11.18,-56.62 8.55,-86.34 -2.57,-28.74 -9.93,-54.12 -21.9,-75.49 -11.77,-20.98 -27.16,-38.08 -45.7,-50.83 -18.81,-12.89 -41.17,-21.57 -66.55,-25.85 -11.71,-1.97 -24.07,-2.82 -36.69,-2.63l-22.89 46.96c6.64,-0.92 13.16,-1.39 19.6,-1.52 10.85,-0.2 21.5,0.66 31.83,2.7 20.38,3.88 39.06,11.44 55.43,22.42 17.1,11.45 31.04,26.64 41.49,45.11 10.2,18.02 16.38,38.54 18.35,60.9 1.97,22.42 -0.26,44.12 -6.71,64.51 -6.31,19.99 -15.98,38.2 -28.74,54.25 -12.69,15.98 -28.47,29.65 -47.01,40.7 -18.15,10.85 -38.47,18.61 -60.3,23.15l-195.7 40.64 -24.27 49.84 195.7 -40.64c30.65,-6.38 58.86,-17.69 83.71,-33.73 25.06,-16.25 46.43,-35.84 63.47,-58.33l-0.01 0z"/>
  <polygon class="fil2" points="828.17,22.33 777.53,126.29 853.09,141.74 903.72,37.71 "/>
  <polygon class="fil1" points="666.49,566.57 558.62,544.65 626.81,404.51 734.66,426.54 "/>
  <polygon class="fil2" points="631.55,423.78 579.53,530.57 656.14,546.22 708.16,439.43 "/>
  <polygon class="fil0" points="704.87,68.88 597.09,46.85 723.54,20.55 831.39,42.58 "/>
  <polygon class="fil2" points="708.49,59.61 642.07,46.06 719.99,29.82 786.34,43.43 "/>
  <polygon class="fil3" points="704.87,68.88 831.39,42.58 566.05,587.46 438.41,613.96 "/>
  <polygon class="fil1" points="642.07,46.06 705.39,58.95 719.53,29.95 "/>
  <polygon class="fil0" points="725.91,95.91 493.65,571.08 545.01,560.43 776.28,85.46 "/>
  <path class="fil2" d="M1127.37 216.51c-2.57,-28.74 -9.93,-54.12 -21.9,-75.49 -8.55,-15.25 -19,-28.41 -31.23,-39.39 9.2,9.47 17.29,20.39 24.13,32.55 11.97,21.37 19.4,46.82 21.9,75.49 2.63,29.73 -0.27,58.79 -8.55,86.34 -8.42,27.88 -21.31,53.4 -38.34,75.83 -17.03,22.48 -38.4,42.08 -63.52,58.19 -24.92,16.05 -53.07,27.36 -83.71,33.74l-184.13 38.27 -4.47 9.21 195.7 -40.64c30.64,-6.38 58.85,-17.69 83.71,-33.74 25.12,-16.11 46.49,-35.7 63.52,-58.19 17.03,-22.49 29.92,-48.01 38.34,-75.82 8.28,-27.56 11.18,-56.62 8.55,-86.35l0 0z"/>
  <path class="fil2" d="M985 109.78c20.39,3.89 39.06,11.45 55.44,22.43 4.99,3.35 9.73,7.03 14.13,10.98 -6.44,-6.64 -13.48,-12.63 -21.23,-17.82 -16.38,-10.98 -34.99,-18.54 -55.44,-22.43 -10.26,-1.97 -20.98,-2.89 -31.83,-2.69 -2.82,0.06 -5.72,0.2 -8.61,0.39l-3.88 7.96c6.64,-0.92 13.15,-1.38 19.59,-1.52 10.86,-0.19 21.57,0.73 31.83,2.7l0 0z"/>
  <polygon class="fil2" points="764.71,87.89 537.91,553.59 498.19,561.88 493.65,571.08 545.01,560.43 776.28,85.46 "/>
  <path class="fil2" d="M613.27 131.48c0.65,0.14 1.31,0.2 1.97,0.2 4.6,0 8.74,-3.22 9.73,-7.95 1.12,-5.4 -2.37,-10.59 -7.76,-11.71l-7.17 -1.45 -49.18 10.2 52.41 10.71z"/>
  <path class="fil2" d="M594.39 167.52c0.66,0.13 1.32,0.2 1.98,0.2 4.6,0 8.74,-3.22 9.73,-7.96 1.12,-5.39 -2.37,-10.59 -7.76,-11.7l-7.17 -1.45 -49.19 10.19 52.41 10.72 0 0z"/>
  <path class="fil2" d="M577.69 204.15c0.66,0.13 1.31,0.2 1.97,0.2 4.61,0 8.75,-3.23 9.74,-7.96 1.11,-5.39 -2.37,-10.59 -7.76,-11.71l-7.17 -1.44 -49.19 10.19 52.41 10.72z"/>
  <path class="fil1" d="M597.09 46.85l-27.09 55.5 47.34 9.67c5.39,1.12 8.82,6.31 7.76,11.71 -0.99,4.73 -5.13,7.95 -9.73,7.95 -0.66,0 -1.31,-0.06 -1.97,-0.2l-52.35 -10.65 -8.74 17.89 46.16 9.4c5.39,1.12 8.82,6.31 7.76,11.71 -0.99,4.73 -5.13,7.95 -9.73,7.95 -0.66,0 -1.31,-0.06 -1.97,-0.19l-51.23 -10.46 -8.74 17.95 47.28 9.67c5.39,1.12 8.81,6.31 7.76,11.71 -0.99,4.73 -5.13,7.95 -9.74,7.95 -0.65,0 -1.31,-0.06 -1.97,-0.2l-52.28 -10.65 -8.74 17.89 47.08 9.6c5.39,1.12 8.82,6.31 7.76,11.71 -0.99,4.73 -5.13,7.95 -9.73,7.95 -0.66,0 -1.31,-0.06 -1.97,-0.2l-52.15 -10.65 -177.02 362.2 107.84 22.03 266.46 -545.14 -108.05 -22.1 0 0z"/>
  <path class="fil2" d="M559.8 240.38c0.66,0.13 1.32,0.2 1.98,0.2 4.6,0 8.74,-3.22 9.73,-7.96 1.12,-5.39 -2.37,-10.58 -7.76,-11.7l-7.17 -1.45 -49.18 10.19 52.4 10.72 0 0z"/>
  <polygon class="fil2" points="847.17,443.71 823.89,491.51 872.95,481.32 896.16,433.52 "/>
  <polygon class="fil3" points="863.54,429.44 909.11,426.22 876.23,493.88 829.48,499.34 "/>
 </g>
</svg>
